<?xml version="1.0" encoding="UTF-8" standalone="no"?>
<!-- Created with Inkscape (http://www.inkscape.org/) -->

<svg
   xmlns:dc="http://purl.org/dc/elements/1.1/"
   xmlns:cc="http://creativecommons.org/ns#"
   xmlns:rdf="http://www.w3.org/1999/02/22-rdf-syntax-ns#"
   xmlns:svg="http://www.w3.org/2000/svg"
   xmlns="http://www.w3.org/2000/svg"
   xmlns:sodipodi="http://sodipodi.sourceforge.net/DTD/sodipodi-0.dtd"
   xmlns:inkscape="http://www.inkscape.org/namespaces/inkscape"
   width="60.388737mm"
   height="8.8533087mm"
   viewBox="0 0 213.97584 31.369991"
   id="svg2"
   version="1.1"
   inkscape:version="0.91 r13725"
   sodipodi:docname="archangel-header.svg">
  <defs
     id="defs4" />
  <sodipodi:namedview
     id="base"
     pagecolor="#ffffff"
     bordercolor="#666666"
     borderopacity="1.0"
     inkscape:pageopacity="0.0"
     inkscape:pageshadow="2"
     inkscape:zoom="4"
     inkscape:cx="68.70335"
     inkscape:cy="11.026649"
     inkscape:document-units="px"
     inkscape:current-layer="layer1"
     showgrid="false"
     fit-margin-top="0"
     fit-margin-left="0"
     fit-margin-right="0"
     fit-margin-bottom="0"
     inkscape:window-width="1920"
     inkscape:window-height="1017"
     inkscape:window-x="-8"
     inkscape:window-y="-8"
     inkscape:window-maximized="1"
     borderlayer="false" />
  <metadata
     id="metadata7">
    <rdf:RDF>
      <cc:Work
         rdf:about="">
        <dc:format>image/svg+xml</dc:format>
        <dc:type
           rdf:resource="http://purl.org/dc/dcmitype/StillImage" />
        <dc:title />
      </cc:Work>
    </rdf:RDF>
  </metadata>
  <g
     inkscape:label="Camada 1"
     inkscape:groupmode="layer"
     id="layer1"
     transform="translate(-243.72637,-477.3915)">
    <path
       style="fill:#0288d1;fill-opacity:1;fill-rule:evenodd;stroke:none;stroke-width:0.1;stroke-linecap:round;stroke-linejoin:round;stroke-miterlimit:4;stroke-dasharray:none;stroke-opacity:1"
       d="m 277.48376,477.3915 -25.80559,11.75399 -1.3377,4.33346 0,-3.72413 -3.1021,1.41295 0,14.33209 30.24539,-28.10836 z"
       id="path6751"
       inkscape:connector-curvature="0" />
    <path
       id="path6802"
       d="m 273.97176,480.65314 -12.64763,23.98225 -4.66292,1.24319 4.00727,0 -1.52038,2.88291 -15.42173,0 30.24539,-28.10835 z"
       style="fill:#01579b;fill-opacity:1;fill-rule:evenodd;stroke:none;stroke-width:0.1;stroke-linecap:round;stroke-linejoin:round;stroke-miterlimit:4;stroke-dasharray:none;stroke-opacity:1"
       inkscape:connector-curvature="0" />
    <g
       transform="matrix(0.98462276,0,0,1.0156174,0,-5.6996791)"
       style="font-style:normal;font-weight:normal;font-size:30.46774101px;line-height:125%;font-family:sans-serif;letter-spacing:0px;word-spacing:0px;fill:#01579b;fill-opacity:1;stroke:none;stroke-width:1px;stroke-linecap:butt;stroke-linejoin:miter;stroke-opacity:1"
       id="text6710">
      <path
         inkscape:connector-curvature="0"
         d="m 280.7588,495.06167 8.46491,0 -4.2399,-8.04836 -4.22501,8.04836 z m -5.69783,5.87635 8.58393,-15.72481 2.81172,0 8.7327,15.72481 -2.88611,0 -2.00837,-3.86798 -10.63693,0 -2.00837,3.86798 -2.58857,0 z"
         style="fill:#0288d1;fill-opacity:1"
         id="path4172" />
      <path
         inkscape:connector-curvature="0"
         d="m 308.4892,489.91429 -6.87309,0 0,4.16551 6.87309,0 q 0.81823,0 1.10089,-0.26778 0.28266,-0.26778 0.28266,-1.04138 l 0,-1.54719 q 0,-0.71409 -0.29754,-1.01162 -0.29754,-0.29754 -1.08601,-0.29754 z m -9.31289,11.02373 0,-12.91309 10.38402,0 q 1.44306,0 2.06788,0.59508 0.63971,0.58019 0.63971,1.90423 l 0,2.8861 q 0,1.30917 -0.63971,1.88936 -0.62482,0.5802 -2.06788,0.5802 l -1.71083,0 5.69782,5.05812 -3.25802,0 -5.14738,-5.05812 -3.52581,0 0,5.05812 -2.4398,0 z"
         style="fill:#0288d1;fill-opacity:1"
         id="path4174" />
      <path
         inkscape:connector-curvature="0"
         d="m 329.00435,489.94404 -9.01536,0 0,9.04511 9.01536,0 0,-3.0795 2.4398,0.46118 0,1.51744 q 0,1.77034 -0.66946,2.41005 -0.65458,0.6397 -2.49931,0.6397 l -7.58718,0 q -1.84473,0 -2.49931,-0.60995 -0.6397,-0.62483 -0.6397,-2.4398 l 0,-6.79871 q 0,-1.8001 0.65458,-2.42492 0.65458,-0.63971 2.48443,-0.63971 l 7.58718,0 q 1.84473,0 2.49931,0.65458 0.66946,0.63971 0.66946,2.41005 l 0,1.2199 -2.4398,0.40167 0,-2.76709 z"
         style="fill:#0288d1;fill-opacity:1"
         id="path4176" />
      <path
         inkscape:connector-curvature="0"
         d="m 336.66591,500.93802 0,-12.88333 2.4398,0 0,5.17713 10.29477,0 0,-5.17713 2.4398,0 0,12.88333 -2.4398,0 0,-5.75733 -10.29477,0 0,5.75733 -2.4398,0 z"
         style="fill:#0288d1;fill-opacity:1"
         id="path4178" />
      <path
         inkscape:connector-curvature="0"
         d="m 355.6785,500.93802 7.46817,-12.91309 2.23152,0 7.64669,12.91309 -2.64808,0 -1.68108,-3.02 -8.92609,0 -1.65133,3.02 -2.4398,0 z m 5.11763,-4.8796 6.85821,0 -3.43654,-6.14413 -3.42167,6.14413 z"
         style="font-style:normal;font-variant:normal;font-weight:normal;font-stretch:semi-expanded;font-family:'BankGothic Lt BT';-inkscape-font-specification:'BankGothic Lt BT Semi-Expanded';fill:#01579b;fill-opacity:1"
         id="path4180" />
      <path
         inkscape:connector-curvature="0"
         d="m 378.96073,490.6135 q 0.0893,0.56532 0.13389,1.14552 0.0446,0.58019 0.0446,1.16039 l 0,8.01861 -2.2464,0 0,-12.91309 1.85961,0 9.47653,8.43516 q 0.41656,0.35705 0.78848,0.78848 0.38679,0.43142 0.75871,0.98187 -0.10413,-0.5802 -0.16364,-1.17527 -0.0446,-0.59508 -0.0446,-1.23478 l 0,-7.79546 2.2464,0 0,12.91309 -1.6662,0 -9.66994,-8.55418 q -0.50581,-0.47605 -0.87773,-0.89261 -0.35705,-0.43142 -0.63971,-0.87773 z"
         style="font-style:normal;font-variant:normal;font-weight:normal;font-stretch:semi-expanded;font-family:'BankGothic Lt BT';-inkscape-font-specification:'BankGothic Lt BT Semi-Expanded';fill:#01579b;fill-opacity:1"
         id="path4182" />
      <path
         inkscape:connector-curvature="0"
         d="m 410.1128,489.94404 -10.2055,0 0,9.04511 10.2055,0 0,-3.51093 -5.26639,0 0,-1.75546 7.70619,0 0,4.16551 q 0,1.77034 -0.66945,2.41005 -0.65458,0.6397 -2.49931,0.6397 l -8.74757,0 q -1.84473,0 -2.51419,-0.62483 -0.65458,-0.6397 -0.65458,-2.42492 l 0,-6.79871 q 0,-1.77034 0.66946,-2.41005 0.66946,-0.65458 2.49931,-0.65458 l 8.74757,0 q 1.8001,0 2.48443,0.63971 0.68433,0.6397 0.68433,2.2464 l 0,0.37192 -2.4398,0.41655 0,-1.75547 z"
         style="font-style:normal;font-variant:normal;font-weight:normal;font-stretch:semi-expanded;font-family:'BankGothic Lt BT';-inkscape-font-specification:'BankGothic Lt BT Semi-Expanded';fill:#01579b;fill-opacity:1"
         id="path4184" />
      <path
         inkscape:connector-curvature="0"
         d="m 417.95289,500.93802 0,-12.91309 13.00235,0 0,1.91911 -10.56255,0 0,3.31754 6.36728,0 0,1.91911 -6.36728,0 0,3.86797 10.68156,0 0,1.88936 -13.12136,0 z"
         style="font-style:normal;font-variant:normal;font-weight:normal;font-stretch:semi-expanded;font-family:'BankGothic Lt BT';-inkscape-font-specification:'BankGothic Lt BT Semi-Expanded';fill:#01579b;fill-opacity:1"
         id="path4186" />
      <path
         inkscape:connector-curvature="0"
         d="m 435.68607,500.93802 0,-12.91309 2.4398,0 0,10.96422 10.04186,0 0,1.94887 -12.48166,0 z"
         style="font-style:normal;font-variant:normal;font-weight:normal;font-stretch:semi-expanded;font-family:'BankGothic Lt BT';-inkscape-font-specification:'BankGothic Lt BT Semi-Expanded';fill:#01579b;fill-opacity:1"
         id="path4188" />
    </g>
    <g
       style="font-style:normal;font-weight:normal;font-size:11.22871494px;line-height:125%;font-family:sans-serif;letter-spacing:0px;word-spacing:0px;fill:#01579b;fill-opacity:1;stroke:none;stroke-width:1px;stroke-linecap:butt;stroke-linejoin:miter;stroke-opacity:1"
       id="text4154"
       transform="translate(0,-5.6996791)">
      <path
         inkscape:connector-curvature="0"
         d="m 446.29254,493.58056 0,5.00577 -0.96496,0 0,-5.00577 -2.64818,0 0,-0.78951 6.27229,0 0,0.78951 -2.65915,0 z"
         style="font-style:normal;font-variant:normal;font-weight:normal;font-stretch:semi-expanded;font-family:'BankGothic Lt BT';-inkscape-font-specification:'BankGothic Lt BT Semi-Expanded';fill:#01579b;fill-opacity:1"
         id="path4191" />
      <path
         inkscape:connector-curvature="0"
         d="m 451.35862,493.82729 q 0.0219,0.16996 0.0329,0.35638 0.011,0.18641 0.011,0.49345 l 0,3.90921 -0.82242,0 0,-5.79528 0.78952,0 2.81814,3.77214 2.62625,-3.77214 0.88821,0 0,5.79528 -0.88821,0 0,-3.90921 q 0,-0.0768 0.0164,-0.3838 0.0219,-0.31251 0.0274,-0.46603 -0.10965,0.22479 -0.19738,0.37831 -0.0822,0.15352 -0.14803,0.24672 l -2.21504,3.22387 -0.24673,0 -2.30276,-3.13614 q -0.005,-0.005 -0.0274,-0.0384 -0.25221,-0.34541 -0.36187,-0.67438 z"
         style="font-style:normal;font-variant:normal;font-weight:normal;font-stretch:semi-expanded;font-family:'BankGothic Lt BT';-inkscape-font-specification:'BankGothic Lt BT Semi-Expanded';fill:#01579b;fill-opacity:1"
         id="path4193" />
    </g>
  </g>
</svg>
