<?xml version="1.0" encoding="UTF-8" standalone="no"?>
<svg
   xmlns:dc="http://purl.org/dc/elements/1.1/"
   xmlns:cc="http://creativecommons.org/ns#"
   xmlns:rdf="http://www.w3.org/1999/02/22-rdf-syntax-ns#"
   xmlns:svg="http://www.w3.org/2000/svg"
   xmlns="http://www.w3.org/2000/svg"
   xmlns:sodipodi="http://sodipodi.sourceforge.net/DTD/sodipodi-0.dtd"
   xmlns:inkscape="http://www.inkscape.org/namespaces/inkscape"
   enable-background="new 0 0 44 43"
   height="43px"
   id="Layer_1"
   version="1.1"
   viewBox="0 0 44 43"
   width="44px"
   xml:space="preserve"
   inkscape:version="0.91 r13725"
   sodipodi:docname="key-02.svg"><metadata
     id="metadata9"><rdf:RDF><cc:Work
         rdf:about=""><dc:format>image/svg+xml</dc:format><dc:type
           rdf:resource="http://purl.org/dc/dcmitype/StillImage" /><dc:title></dc:title></cc:Work></rdf:RDF></metadata><defs
     id="defs7" /><sodipodi:namedview
     pagecolor="#ffffff"
     bordercolor="#666666"
     borderopacity="1"
     objecttolerance="10"
     gridtolerance="10"
     guidetolerance="10"
     inkscape:pageopacity="0"
     inkscape:pageshadow="2"
     inkscape:window-width="1920"
     inkscape:window-height="1017"
     id="namedview5"
     showgrid="false"
     inkscape:zoom="5.4883721"
     inkscape:cx="-0.68432203"
     inkscape:cy="21.5"
     inkscape:window-x="-8"
     inkscape:window-y="-8"
     inkscape:window-maximized="1"
     inkscape:current-layer="Layer_1" /><path
     d="M30.256,21.173c1.835-5.235,1.049-12.14-3.431-16.62C20.771-1.5,10.984-1.527,4.932,4.526  c-6.054,6.053-6.094,15.908-0.041,21.961c4.615,4.615,11.168,5.945,17.026,3.318l2.902,2.902l0.109,0.109l4.084-0.714l-0.018,4.271  l4.244,0.008l-0.532,4.213l2.111,2.111c0.006,0.006,0.006,0.006,0.01,0.01l0.157-0.156c0.741,0.673,0.504,0.366,0.615,0.366  l7.272,0.22c0.6,0,1.126-0.443,1.127-1.044l-0.283-7.333c0-0.112,0.327,0.146-0.346-0.596l-0.058,0.059  c-0.003-0.004-0.003-0.003-0.006-0.007L30.256,21.173z M13.483,13.702c-1.563,1.563-4.095,1.563-5.657,0s-1.563-4.094,0-5.657  c1.563-1.563,4.095-1.563,5.657,0S15.046,12.14,13.483,13.702z"
     fill="#231F20"
     id="path3"
     style="fill:#0288d1;fill-opacity:1" /></svg>